<?xml version="1.0" standalone="no"?>
<!DOCTYPE svg PUBLIC "-//W3C//DTD SVG 20010904//EN"
 "http://www.w3.org/TR/2001/REC-SVG-20010904/DTD/svg10.dtd">
<svg version="1.0" xmlns="http://www.w3.org/2000/svg"
 width="204.000000pt" height="228.000000pt" viewBox="0 0 204.000000 228.000000"
 preserveAspectRatio="xMidYMid meet">

<g transform="translate(0.000000,228.000000) scale(0.100000,-0.100000)"
fill="#000000" stroke="none">
<path d="M990 1957 c0 -46 -4 -66 -14 -70 -22 -9 -26 2 -26 65 0 58 0 58 -30
58 l-30 0 2 -66 c4 -90 -15 -96 -34 -12 -12 58 -15 63 -38 60 -14 -2 -27 -6
-29 -8 -3 -2 3 -29 13 -60 13 -41 15 -59 7 -67 -15 -15 -25 -2 -47 61 -15 45
-21 51 -38 46 -37 -11 -39 -21 -12 -80 20 -43 23 -59 14 -65 -18 -11 -24 -4
-52 56 -14 30 -29 55 -33 55 -5 0 -18 -7 -30 -15 l-22 -16 35 -55 c32 -50 37
-74 14 -74 -6 0 -26 25 -46 55 l-36 54 -30 -15 -29 -15 33 -40 c59 -73 60 -75
45 -88 -12 -9 -23 0 -57 44 -23 30 -46 55 -49 55 -4 0 -18 -11 -30 -24 l-22
-23 56 -50 c46 -42 53 -52 41 -62 -11 -9 -25 -2 -70 40 -55 50 -57 51 -76 34
-11 -10 -20 -24 -20 -31 0 -7 27 -32 60 -55 57 -40 72 -65 38 -63 -9 1 -41 21
-73 45 l-57 43 -19 -25 c-10 -13 -19 -27 -19 -32 0 -4 23 -19 51 -35 71 -38
93 -57 85 -71 -5 -8 -30 0 -84 29 l-77 40 -18 -21 c-9 -12 -17 -26 -17 -33 0
-6 38 -26 84 -44 62 -24 83 -37 79 -48 -7 -19 -6 -19 -96 16 -43 17 -82 30
-85 30 -7 0 -34 -62 -29 -65 1 -1 44 -12 94 -25 83 -20 106 -34 88 -52 -3 -3
-47 5 -98 17 -50 13 -95 20 -98 16 -4 -3 -10 -20 -14 -38 l-6 -31 58 -7 c122
-14 148 -20 148 -35 0 -16 -3 -16 -132 -6 l-82 7 -8 -28 c-4 -15 -8 -89 -8
-163 1 -108 5 -152 24 -219 53 -197 149 -347 309 -481 95 -80 226 -148 347
-181 110 -30 317 -32 425 -5 96 24 216 75 288 123 74 48 218 192 267 268 55
83 110 215 129 309 16 79 22 284 10 345 -7 32 -8 32 -53 27 -165 -19 -173 -19
-169 0 3 16 19 21 101 30 54 7 100 14 102 16 3 2 0 20 -5 40 l-10 36 -73 -18
c-133 -33 -127 -32 -127 -11 0 15 16 23 91 41 89 22 90 23 84 49 -4 14 -10 29
-14 33 -4 5 -42 -6 -86 -22 -75 -29 -105 -32 -105 -11 0 5 37 24 83 41 45 18
83 33 85 35 3 3 -8 26 -26 53 -7 10 -25 4 -83 -27 -84 -46 -85 -46 -93 -26 -4
11 10 23 47 41 86 44 98 54 87 73 -26 45 -25 45 -95 -3 -72 -49 -85 -54 -85
-31 0 8 27 33 60 57 33 23 60 44 60 47 0 4 -9 17 -19 30 l-19 25 -62 -54 c-48
-42 -64 -50 -73 -41 -9 10 0 24 45 65 l58 53 -26 24 -26 24 -26 -30 c-15 -17
-37 -43 -49 -58 -20 -26 -43 -30 -43 -7 0 4 19 32 42 61 l41 52 -23 19 c-12
10 -25 18 -29 18 -4 0 -22 -25 -40 -55 -18 -30 -40 -55 -47 -55 -21 0 -17 18
16 72 36 59 37 62 5 76 -24 11 -26 9 -55 -48 -17 -33 -34 -60 -40 -60 -20 0
-19 21 6 75 26 59 24 68 -12 79 -19 6 -24 -1 -43 -54 -13 -36 -28 -60 -37 -60
-18 0 -18 17 1 71 19 51 15 65 -19 71 -23 5 -26 1 -38 -56 -9 -41 -18 -61 -28
-61 -17 0 -18 25 -6 93 8 42 8 42 -22 42 -30 0 -31 -2 -38 -57 -8 -67 -10 -74
-27 -67 -8 3 -12 27 -12 67 0 60 -1 62 -27 65 -28 3 -28 3 -28 -61z m175 -123
c179 -43 347 -179 434 -352 28 -54 61 -183 61 -234 l0 -38 80 0 80 0 0 -27 c0
-69 -31 -225 -59 -291 -47 -117 -90 -181 -186 -277 -101 -102 -190 -160 -310
-202 -75 -26 -90 -28 -240 -27 -148 0 -166 2 -240 28 -223 77 -388 220 -485
420 -46 96 -80 227 -80 313 l0 62 78 3 77 3 7 67 c8 85 20 124 70 219 136 266
427 401 713 333z"/>
<path d="M920 1760 c-103 -18 -206 -76 -287 -163 -29 -31 -53 -61 -53 -66 0
-8 134 -11 430 -11 l431 0 -12 22 c-27 51 -125 135 -199 171 -103 50 -203 65
-310 47z"/>
<path d="M565 1471 c-81 -36 -133 -137 -114 -221 38 -171 208 -245 329 -143
35 29 75 99 61 107 -5 3 -14 -8 -21 -24 -17 -41 -71 -87 -119 -101 -147 -44
-284 138 -211 280 37 74 117 113 183 92 72 -24 139 -133 122 -200 -11 -43 -45
-90 -77 -107 -92 -47 -198 20 -198 125 0 137 154 179 216 59 23 -44 17 -77
-20 -114 -43 -43 -77 -44 -117 -5 -54 54 -31 131 39 131 54 0 80 -60 41 -96
-24 -22 -52 -10 -57 25 -3 19 0 22 18 16 16 -5 21 -3 18 6 -3 8 -14 15 -26 17
-16 2 -23 -3 -27 -21 -14 -54 36 -92 80 -63 33 22 40 57 21 95 -30 58 -82 67
-127 22 -43 -43 -41 -101 5 -147 26 -26 42 -34 71 -34 29 0 45 8 71 34 29 29
34 41 34 80 0 85 -51 146 -122 146 -112 0 -172 -114 -118 -224 52 -108 193
-120 261 -24 33 46 38 141 11 194 -52 101 -137 136 -227 95z"/>
<path d="M1296 1438 c-22 -13 -53 -40 -70 -61 -25 -31 -31 -49 -34 -100 -7
-109 45 -181 139 -192 88 -11 171 72 171 172 0 74 -61 138 -132 138 -103 0
-171 -130 -111 -213 63 -89 191 -43 191 68 0 55 -46 105 -88 96 -39 -10 -72
-51 -72 -90 0 -58 58 -87 94 -47 24 26 18 76 -8 76 -11 0 -21 -6 -24 -13 -2
-8 2 -10 13 -6 24 9 16 -35 -8 -50 -15 -9 -22 -7 -37 12 -23 28 -15 57 24 86
26 20 26 20 54 -1 20 -15 28 -30 30 -61 8 -112 -146 -126 -174 -17 -10 42 26
108 71 129 42 20 69 16 110 -15 61 -49 67 -128 14 -192 -103 -125 -282 -11
-234 149 17 56 52 96 109 119 47 20 82 13 135 -25 54 -40 73 -79 72 -152 0
-80 -38 -141 -113 -179 -99 -51 -216 8 -254 127 -9 30 -19 54 -22 54 -2 0 -2
-20 0 -45 11 -92 106 -175 200 -175 89 0 183 77 209 172 41 152 -129 310 -255
236z"/>
<path d="M965 1322 c-19 -12 -46 -49 -75 -103 -52 -98 -140 -193 -188 -204
-54 -11 -129 18 -204 80 -37 30 -72 55 -78 55 -14 0 -12 -23 5 -99 47 -198
218 -375 430 -445 49 -16 105 -71 105 -102 0 -6 -16 -26 -36 -44 -50 -44 -35
-50 23 -8 53 38 63 66 39 103 -20 30 -20 35 -2 35 19 0 66 -61 66 -86 0 -10
-14 -31 -32 -46 -46 -37 -28 -47 21 -12 56 41 67 63 47 102 -21 41 -21 42 14
42 42 0 164 44 229 83 64 38 155 125 200 191 56 81 113 249 95 278 -4 5 -27
-11 -53 -36 -70 -68 -147 -100 -246 -100 -85 0 -116 11 -174 60 -54 45 -75
162 -35 195 22 18 16 38 -18 59 -41 25 -94 25 -133 2z m115 -17 l28 -15 -21
-38 c-19 -36 -20 -43 -8 -97 41 -182 288 -234 472 -99 27 19 49 32 49 26 0
-22 -42 -129 -72 -180 -47 -82 -149 -180 -235 -225 -73 -38 -217 -81 -240 -72
-22 8 -14 36 18 66 17 16 25 29 19 29 -21 0 -81 -50 -91 -77 -6 -18 -15 -24
-31 -21 -37 5 -33 35 9 75 l38 36 -44 -24 c-24 -13 -51 -35 -59 -47 -19 -30
-43 -26 -148 24 -112 53 -219 160 -273 275 -35 74 -66 169 -55 169 2 0 30 -20
61 -45 91 -70 168 -90 236 -62 51 22 122 102 168 190 23 44 53 91 67 104 29
27 70 30 112 8z"/>
<path d="M1010 1265 c0 -9 5 -15 11 -13 6 2 11 8 11 13 0 5 -5 11 -11 13 -6 2
-11 -4 -11 -13z"/>
<path d="M847 1283 c-11 -10 -8 -53 3 -53 6 0 10 14 10 30 0 31 -2 35 -13 23z"/>
<path d="M417 833 c-26 -19 -47 -39 -47 -44 0 -14 13 -10 40 11 38 30 44 24
15 -15 -34 -44 -26 -60 22 -40 50 21 53 18 14 -14 -51 -42 -23 -45 32 -4 42
31 46 38 34 50 -12 13 -19 12 -51 -1 -42 -17 -45 -9 -12 31 19 23 22 32 12 45
-10 14 -17 12 -59 -19z"/>
<path d="M1557 853 c-7 -6 79 -73 95 -73 20 0 4 22 -36 50 -49 33 -50 33 -59
23z"/>
<path d="M1520 798 c0 -6 7 -19 15 -28 14 -15 13 -19 -5 -35 -19 -17 -21 -17
-38 -2 -10 10 -22 14 -26 10 -7 -7 72 -93 86 -93 15 0 8 29 -9 38 -10 6 -14
16 -10 26 10 25 36 30 56 12 10 -9 21 -13 25 -9 7 7 -72 93 -86 93 -4 0 -8 -5
-8 -12z"/>
<path d="M533 688 c-52 -29 -72 -56 -32 -43 26 9 61 -21 54 -46 -3 -9 -1 -20
4 -23 6 -4 15 12 21 35 6 23 15 52 20 64 15 40 -9 44 -67 13z m47 -15 c0 -5
-5 -15 -10 -23 -7 -11 -12 -12 -21 -3 -6 6 -8 16 -5 22 8 12 36 15 36 4z"/>
<path d="M1405 689 c-22 -16 -41 -34 -43 -39 -5 -14 15 -12 24 2 5 7 20 -4 45
-33 47 -56 61 -45 20 15 -28 40 -29 46 -15 54 9 5 15 14 13 20 -2 6 -22 -2
-44 -19z"/>
<path d="M634 599 c-14 -28 -22 -54 -19 -57 6 -7 14 2 42 45 10 16 12 13 12
-20 1 -21 6 -48 12 -59 10 -19 13 -17 40 28 16 27 29 55 29 62 0 23 -17 12
-30 -18 -17 -40 -30 -38 -30 4 0 40 -8 66 -21 66 -5 0 -20 -23 -35 -51z"/>
<path d="M1320 623 c1 -5 7 -19 15 -33 22 -39 18 -42 -25 -15 -66 42 -72 36
-39 -44 21 -48 48 -73 35 -31 -3 11 -9 30 -13 42 l-6 22 35 -22 c33 -20 68
-29 68 -17 0 15 -52 105 -60 105 -6 0 -10 -3 -10 -7z"/>
<path d="M780 528 c-23 -29 -37 -54 -30 -56 6 -2 17 1 24 7 18 15 66 -3 66
-24 0 -8 5 -15 11 -15 8 0 9 18 5 62 -11 97 -17 99 -76 26z m46 -26 c-4 -3
-11 -1 -18 6 -8 8 -8 15 3 28 13 16 14 16 17 -5 2 -13 1 -25 -2 -29z"/>
<path d="M1146 553 c-13 -50 -17 -123 -6 -123 7 0 14 9 17 19 6 23 42 35 60
20 32 -27 30 1 -3 49 -38 54 -59 65 -68 35z m43 -36 c12 -15 5 -27 -16 -27 -7
0 -13 9 -13 20 0 23 13 26 29 7z"/>
</g>
</svg>
