<svg width="675" height="121" viewBox="0 0 675 121" fill="none" xmlns="http://www.w3.org/2000/svg">
<path d="M0 30C5.94 30 11.88 30 18 30C20.2245 34.856 22.4485 39.7122 24.6711 44.5691C25.4264 46.219 26.1819 47.8687 26.9377 49.5183C28.0283 51.8986 29.1178 54.2793 30.207 56.6602C30.5415 57.3896 30.876 58.1191 31.2207 58.8706C32.1534 60.911 33.078 62.9548 34 65C34.2979 65.6499 34.5958 66.2998 34.9027 66.9695C36.1847 69.834 37 71.823 37 75C37.66 75 38.32 75 39 75C39.3609 73.8166 39.7219 72.6333 40.0938 71.4141C42.3911 64.5246 45.4923 57.975 48.5 51.375C49.3772 49.4394 50.2532 47.5032 51.1288 45.5668C51.9217 43.8149 52.7176 42.0644 53.5137 40.314C55.0479 36.8931 56.5231 33.446 58 30C63.94 30 69.88 30 76 30C75.01 32.31 74.02 34.62 73 37C72.5586 39.8139 72.5586 39.8139 72.6118 42.6089C72.5976 44.1862 72.5976 44.1862 72.5832 45.7954C72.5892 46.9122 72.5953 48.029 72.6016 49.1797C72.5987 50.347 72.5958 51.5144 72.5929 52.7171C72.5908 55.1797 72.5963 57.6424 72.6089 60.105C72.6249 63.8555 72.609 67.605 72.5898 71.3555C72.5918 73.7552 72.5957 76.155 72.6016 78.5547C72.5955 79.6675 72.5894 80.7802 72.5832 81.9267C72.5926 82.9846 72.6021 84.0424 72.6118 85.1323C72.6154 86.5096 72.6154 86.5096 72.619 87.9148C73.0299 92.0777 73.0299 92.0777 76 100C68.74 100 61.48 100 54 100C54.66 97.36 55.32 94.72 56 92C56.2835 89.3526 56.5012 86.777 56.625 84.125C56.6998 82.8282 56.7745 81.5314 56.8516 80.1953C57.1506 72.4706 57.0282 64.7289 57 57C54.5958 62.7835 52.1932 68.5677 49.7917 74.3523C48.9744 76.3205 48.1567 78.2887 47.3386 80.2566C46.1636 83.0834 44.9899 85.9108 43.8164 88.7383C43.4497 89.6196 43.083 90.501 42.7052 91.409C42.3649 92.2296 42.0247 93.0503 41.6741 93.8958C41.3743 94.6174 41.0745 95.3391 40.7656 96.0827C40.1198 97.7001 39.5507 99.3478 39 101C38.01 101 37.02 101 36 101C30.06 86.81 24.12 72.62 18 58C17.9602 70.2037 17.9602 70.2037 18.375 82.375C18.4059 83.0904 18.4369 83.8059 18.4688 84.543C18.7644 90.012 19.7774 94.4982 21 100C14.07 100 7.14 100 0 100C0.66 97.69 1.32 95.38 2 93C2.29535 90.0381 2.29535 90.0381 2.25879 87.0681C2.26509 85.9468 2.2714 84.8255 2.27789 83.6703C2.27384 82.4784 2.2698 81.2866 2.26562 80.0586C2.26754 78.8176 2.26945 77.5765 2.27142 76.2979C2.27313 73.0139 2.26512 69.73 2.25391 66.446C2.25 64.4377 2.2539 62.4295 2.26074 60.4211C2.27311 56.5502 2.2716 52.6795 2.26562 48.8086C2.26967 47.6147 2.27372 46.4208 2.27789 45.1908C2.27159 44.0726 2.26528 42.9545 2.25879 41.8025C2.2572 40.8243 2.25561 39.8462 2.25397 38.8384C2.05625 35.4007 2.05625 35.4007 0 30Z" fill="white"/>
<path d="M450 30.0001C456.405 28.5729 462.742 27.5045 469 30.0001C474.953 35.331 478.528 42.8909 482.266 49.8429C484.928 54.6889 487.937 59.2969 490.938 63.9376C491.928 65.5075 492.917 67.079 493.902 68.6524C494.595 69.7572 495.287 70.8619 496 72.0001C496.05 67.1437 496.086 62.2875 496.11 57.431C496.12 55.7812 496.133 54.1315 496.151 52.4818C496.175 50.1011 496.187 47.7207 496.195 45.3399C496.206 44.6105 496.216 43.881 496.227 43.1295C496.227 42.4293 496.227 41.7291 496.227 41.0077C496.234 40.0983 496.234 40.0983 496.241 39.1706C495.894 36.043 494.864 33.0258 494 30.0001C500.93 30.0001 507.86 30.0001 515 30.0001C514.34 32.6401 513.68 35.2801 513 38.0001C512.718 41.3077 512.718 41.3077 512.773 44.5997C512.773 46.4607 512.773 46.4607 512.773 48.3593C512.784 49.6742 512.794 50.9891 512.805 52.3438C512.808 53.7225 512.811 55.1011 512.813 56.4797C512.821 60.0833 512.84 63.6867 512.863 67.2902C512.883 70.9774 512.892 74.6645 512.902 78.3516C512.924 85.5679 512.958 92.784 513 100C510.577 100.105 508.159 100.182 505.734 100.242C504.708 100.291 504.708 100.291 503.662 100.341C500.291 100.404 498.429 100.337 495.737 98.2205C493.875 95.5971 492.467 92.8644 491 90.0001C489.746 87.8895 488.456 85.8042 487.162 83.7179C485.737 81.4163 484.334 79.1019 482.934 76.7852C478.449 69.4208 473.714 62.2185 469 55.0001C468.95 60.1779 468.914 65.3555 468.89 70.5335C468.88 72.294 468.866 74.0544 468.849 75.8148C468.825 78.3492 468.813 80.8835 468.805 83.4181C468.794 84.2016 468.784 84.9851 468.773 85.7924C468.773 90.0245 469.238 93.1629 471 97.0001C471 97.9901 471 98.9801 471 100C464.07 100 457.14 100 450 100C450.66 97.3601 451.32 94.7201 452 92.0001C452.293 89.075 452.293 89.075 452.259 86.2618C452.265 85.2071 452.271 84.1524 452.278 83.0658C452.274 81.951 452.27 80.8362 452.266 79.6876C452.268 78.5193 452.269 77.351 452.271 76.1473C452.273 73.6864 452.269 71.2256 452.261 68.7647C452.25 65.0123 452.261 61.2603 452.273 57.5079C452.272 55.1095 452.27 52.711 452.266 50.3126C452.27 49.1978 452.274 48.083 452.278 46.9344C452.242 40.9362 451.749 35.7458 450 30.0001Z" fill="white"/>
<path d="M160 29.9999C175.825 27.8066 175.825 27.8066 180.688 31.166C183.775 34.5385 185.75 38.5978 187.778 42.663C190.007 46.9261 192.701 50.902 195.312 54.9374C196.291 56.4864 197.266 58.0371 198.238 59.5898C198.695 60.3192 199.153 61.0487 199.624 61.8002C201.75 65.1992 203.876 68.5989 206 71.9999C206.05 67.1436 206.086 62.2874 206.11 57.4308C206.12 55.7811 206.133 54.1313 206.151 52.4816C206.175 50.101 206.187 47.7205 206.195 45.3398C206.206 44.6103 206.216 43.8809 206.227 43.1293C206.227 42.4291 206.227 41.7289 206.227 41.0075C206.234 40.0982 206.234 40.0982 206.241 39.1705C205.894 36.0429 204.864 33.0256 204 29.9999C210.93 29.9999 217.86 29.9999 225 29.9999C224.34 32.3099 223.68 34.6199 223 36.9999C222.716 40.2489 222.716 40.2489 222.773 43.5778C222.773 45.469 222.773 45.469 222.773 47.3984C222.784 48.7538 222.794 50.1093 222.805 51.4648C222.808 52.8673 222.811 54.2697 222.813 55.6722C222.821 59.3432 222.84 63.0141 222.863 66.685C222.883 70.439 222.892 74.1931 222.902 77.9472C222.924 85.2982 222.958 92.649 223 99.9999C220.57 100.08 218.142 100.138 215.711 100.184C215.024 100.209 214.337 100.233 213.629 100.259C210.586 100.302 208.495 100.321 205.9 98.6397C204.423 96.8095 203.446 94.9991 202.438 92.8749C201.573 91.3229 200.705 89.7722 199.836 88.2226C199.39 87.3849 198.943 86.5471 198.483 85.684C195.753 80.7436 192.625 76.051 189.562 71.3124C188.396 69.476 187.23 67.6388 186.066 65.8007C183.763 62.1649 181.395 58.5762 179 54.9999C178.95 59.9621 178.914 64.9241 178.89 69.8864C178.88 71.571 178.867 73.2556 178.849 74.9401C178.825 77.3755 178.813 79.8106 178.805 82.246C178.794 82.987 178.784 83.728 178.773 84.4915C178.772 90.1492 179.715 94.2162 181 99.9999C174.07 99.9999 167.14 99.9999 160 99.9999C160.66 98.0199 161.32 96.0399 162 93.9999C162.297 91.0967 162.297 91.0967 162.259 88.0898C162.265 86.9484 162.271 85.807 162.278 84.631C162.274 83.4122 162.27 82.1933 162.266 80.9374C162.268 79.6728 162.269 78.4081 162.271 77.1052C162.273 74.4355 162.27 71.7662 162.261 69.0966C162.249 65.6872 162.256 62.2781 162.268 58.8686C162.277 55.5999 162.271 52.3312 162.266 49.0624C162.27 47.8436 162.274 46.6247 162.278 45.3688C162.272 44.2275 162.265 43.0861 162.259 41.9101C162.257 40.9112 162.256 39.9122 162.254 38.883C161.972 35.679 161.123 33.004 160 29.9999Z" fill="white"/>
<path d="M584 30C591.26 30 598.52 30 606 30C605.34 31.65 604.68 33.3 604 35C603.642 37.5043 603.642 37.5043 603.586 40.082C603.547 41.0134 603.509 41.9447 603.469 42.9043C603.422 44.3439 603.422 44.3439 603.375 45.8125C603.336 46.7915 603.298 47.7706 603.258 48.7793C603.164 51.1859 603.081 53.5929 603 56C609.27 56 615.54 56 622 56C621.886 52.791 621.759 49.5832 621.625 46.375C621.594 45.4714 621.563 44.5677 621.531 43.6367C621.473 42.3122 621.473 42.3122 621.414 40.9609C621.383 40.1545 621.351 39.348 621.319 38.5171C621.001 35.3554 621.001 35.3554 619 30C626.26 30 633.52 30 641 30C640.34 32.64 639.68 35.28 639 38C638.707 40.9728 638.707 40.9728 638.741 43.8459C638.735 44.9239 638.729 46.0018 638.722 47.1124C638.726 48.2523 638.73 49.3921 638.734 50.5664C638.732 51.7593 638.731 52.9521 638.729 54.1811C638.727 56.6933 638.731 59.2054 638.739 61.7175C638.75 65.5534 638.739 69.3888 638.727 73.2246C638.728 75.6719 638.73 78.1191 638.734 80.5664C638.73 81.7082 638.726 82.8501 638.722 84.0265C638.728 85.1013 638.735 86.1761 638.741 87.2834C638.743 88.2208 638.744 89.1582 638.746 90.124C638.975 93.746 638.975 93.746 641 100C633.74 100 626.48 100 619 100C619.66 97.69 620.32 95.38 621 93C621.353 90.1153 621.353 90.1153 621.414 87.2852C621.453 86.27 621.491 85.2549 621.531 84.209C621.562 83.1706 621.593 82.1323 621.625 81.0625C621.664 79.9971 621.702 78.9317 621.742 77.834C621.836 75.2229 621.919 72.6115 622 70C615.73 70 609.46 70 603 70C603.114 73.6881 603.241 77.3751 603.375 81.0625C603.406 82.1008 603.437 83.1392 603.469 84.209C603.507 85.2241 603.546 86.2393 603.586 87.2852C603.633 88.6755 603.633 88.6755 603.681 90.094C603.998 93.7376 603.998 93.7376 606 100C598.41 100 590.82 100 583 100C583.99 97.03 584.98 94.06 586 91C586.429 88.068 586.429 88.068 586.372 85.3477C586.379 84.3363 586.385 83.325 586.391 82.283C586.382 81.2202 586.373 80.1575 586.363 79.0625C586.364 77.9424 586.364 76.8223 586.365 75.6682C586.362 73.3117 586.353 70.9551 586.336 68.5986C586.313 65.0108 586.316 61.4238 586.322 57.8359C586.317 55.5365 586.31 53.237 586.301 50.9375C586.302 49.3434 586.302 49.3434 586.304 47.717C586.294 46.7057 586.284 45.6943 586.275 44.6523C586.27 43.7757 586.265 42.8991 586.261 41.9958C585.908 37.9422 584.883 33.9721 584 30Z" fill="white"/>
<path d="M374 0C376 2 376 2 376.012 4.32031C374.6 8.05992 371.982 9.6758 368.812 11.875C361.357 17.3379 355.086 23.0006 352 32C351.01 39.6701 353.285 46.1977 357.766 52.4727C359.105 54.1363 360.464 55.7846 361.84 57.418C364.105 60.126 366.222 62.9049 368.312 65.75C368.948 66.6111 369.584 67.4722 370.238 68.3594C373.87 73.8035 376.066 78.3756 375 85C370.512 100.253 356.09 108.526 343.438 116.562C342.747 117.004 342.056 117.446 341.344 117.902C336.363 121 336.363 121 333 121C332.34 119.35 331.68 117.7 331 116C332.333 114.957 333.666 113.916 335 112.875C335.821 112.233 336.642 111.591 337.488 110.93C339.691 109.237 341.929 107.616 344.188 106C348.847 102.524 353.134 98.5977 355 93C356.434 81.2377 352.174 74.4452 345.56 65.1106C339.075 55.9553 334.135 47.6045 336 36C341.068 19.992 355.54 11.8221 368.875 3.35352C370.597 2.25684 372.301 1.13253 374 0Z" fill="white"/>
<path d="M338 1C338.99 1.33 339.98 1.66 341 2C341.688 4.0625 341.688 4.0625 342 6C341.227 6.55688 340.453 7.11375 339.656 7.6875C326.394 16.8213 326.394 16.8213 318 30C316.735 38.4913 318.279 44.9065 323 52C324.913 54.5539 326.895 57.0245 328.938 59.4766C340.623 73.7739 340.623 73.7739 340.363 84.0625C339.33 92.4186 334.629 98.1818 328.367 103.492C321.594 108.702 314.245 113.179 307.018 117.722C305.33 118.791 303.662 119.892 302 121C301.01 121 300.02 121 299 121C298.34 119.35 297.68 117.7 297 116C298.333 114.957 299.666 113.916 301 112.875C301.82 112.234 302.64 111.594 303.484 110.934C305.711 109.222 307.971 107.577 310.25 105.938C315.889 101.714 320.24 97.0338 321.324 89.8516C322.114 78.725 314.58 70.0901 308.516 61.3899C302.606 52.8005 300.813 45.4183 302 35C306.126 20.1836 321.034 11.8761 333.166 4.16992C334.79 3.1337 336.397 2.06888 338 1Z" fill="white"/>
<path d="M524 30C542.15 30 560.3 30 579 30C577.68 34.29 576.36 38.58 575 43C568.73 43 562.46 43 556 43C556.074 49.1896 556.158 55.3779 556.262 61.5669C556.295 63.6674 556.324 65.768 556.346 67.8687C556.522 84.1622 556.522 84.1622 560 100C552.41 100 544.82 100 537 100C537.481 98.4995 537.962 96.9991 538.457 95.4531C540.968 85.4078 540.575 75.0443 540.688 64.75C540.721 62.6367 540.755 60.5234 540.791 58.4102C540.875 53.2735 540.942 48.137 541 43C538.083 43.141 535.167 43.2876 532.25 43.4375C531.425 43.4768 530.6 43.5161 529.75 43.5566C528.951 43.5985 528.152 43.6404 527.328 43.6836C526.595 43.7203 525.862 43.7569 525.106 43.7947C522.988 44.0011 521.048 44.4313 519 45C519.26 43.6229 519.534 42.2484 519.812 40.875C519.963 40.1093 520.114 39.3436 520.27 38.5547C521 36 521 36 524 30Z" fill="white"/>
<path d="M652 30C659.26 30 666.52 30 674 30C673.34 32.31 672.68 34.62 672 37C671.7 39.7706 671.7 39.7706 671.725 42.5012C671.716 43.5295 671.706 44.5578 671.696 45.6173C671.697 46.7091 671.698 47.8009 671.699 48.9258C671.695 50.0686 671.691 51.2113 671.686 52.3887C671.681 54.8001 671.68 57.2114 671.684 59.6228C671.687 63.2899 671.664 66.9561 671.639 70.623C671.636 72.974 671.636 75.3249 671.637 77.6758C671.628 78.7615 671.618 79.8473 671.609 80.9659C671.618 82.5225 671.618 82.5225 671.628 84.1106C671.627 85.0088 671.626 85.907 671.626 86.8325C672.157 91.3322 673.698 95.6601 675 100C667.41 100 659.82 100 652 100C652.66 97.36 653.32 94.72 654 92C654.294 88.9316 654.294 88.9316 654.259 85.9387C654.265 84.8143 654.271 83.6898 654.278 82.5313C654.274 81.3415 654.27 80.1517 654.266 78.9258C654.268 77.6838 654.269 76.4418 654.271 75.1622C654.273 71.8811 654.265 68.6002 654.254 65.3191C654.25 63.3096 654.254 61.3003 654.261 59.2908C654.273 55.419 654.272 51.5475 654.266 47.6758C654.27 46.4799 654.274 45.284 654.278 44.0518C654.272 42.9369 654.265 41.8219 654.259 40.6731C654.257 39.6957 654.256 38.7184 654.254 37.7114C654.085 34.5278 654.085 34.5278 652 30Z" fill="white"/>
<path fill-rule="evenodd" clip-rule="evenodd" d="M117.666 28.9643C126.7 28.917 126.7 28.9172 130.079 31.7309C131.714 34.083 132.874 36.3673 134 38.9995C134.371 39.7718 134.742 40.5446 135.125 41.3403C136.215 43.6993 137.185 46.0771 138.125 48.4995C138.466 49.3689 138.806 50.2386 139.157 51.1343C144.915 66.2669 149 83.7601 149 99.9995H130V78.9995H105V99.9995H87C88.0045 81.9203 92.2779 56.7216 106 42.9995L94 43.9995C98.2494 30.4418 98.2497 30.4416 102.815 29.2895C106.483 29.1876 110.143 29.1208 113.812 29.1245L117.666 28.9643ZM119 42.9995C117.831 44.1688 117.83 44.1692 115.117 49.4819L114 51.687L112.883 53.8335L111.812 55.9487C110.125 59.2467 110.125 59.2472 109 65.9995H128C128 62.5847 128 62.584 126.014 56.8393L125.188 54.4995L124.396 52.1596L123.605 49.9057C122.556 46.8901 121.383 45.1375 119 42.9995Z" fill="white"/>
<path fill-rule="evenodd" clip-rule="evenodd" d="M266.52 29.2092C275.835 28.992 275.836 28.9917 279.146 31.8566C280.717 34.1761 281.894 36.4299 283 39.0002L284.539 41.8635C292.862 60.6357 296.166 79.6723 298 100H279V79.0002H255L254 100H236C237.717 78.7734 242.78 60.6908 255 43.0002C250.839 42.9186 247.053 43.0177 243 44.0002C244.076 40.4132 245.385 37.1122 247.078 33.7814L248.169 31.6272L249 30.0002C253.541 29.7382 258.079 29.5788 262.625 29.4377L266.52 29.2092ZM267 44.0002C266.065 45.9315 265.132 47.8638 264.205 49.799L263.062 52.1877L261.932 54.5178L260.848 56.7932C259.289 60.035 258.74 62.3005 258 66.0002H277C277 61.0069 275.557 57.3876 273.711 52.7893L270 44.0002H267Z" fill="white"/>
<path fill-rule="evenodd" clip-rule="evenodd" d="M393.784 29.2263C415.386 28.122 415.386 28.1215 421.002 31.0397C423.946 33.7659 425.266 37.2588 426.399 41.0368C427.016 43.0509 427.781 44.9305 428.617 46.863C435.505 63.1763 440 82.2639 440 99.9997H421V77.9997H397L396 99.9997H378C379.266 81.5661 383.141 56.8586 397 42.9997L385 43.9997C389.234 30.491 389.234 30.4911 393.784 29.2263ZM410 42.9997C408.852 44.148 408.851 44.1484 406.117 49.8864L405 52.2497L403.883 54.5661L402.812 56.8278C401.278 60.0516 400.734 62.3282 400 65.9997H419C418 59.0001 418 58.9996 416.914 55.5778L415.625 52.2497C414.203 48.4987 413.124 45.5941 410 42.9997Z" fill="white"/>
</svg>
